<svg width="182" height="32" viewBox="0 0 182 32" fill="none" xmlns="http://www.w3.org/2000/svg">
<path d="M156.234 10.0204H158.656V15.0327H156.234V26.6272H158.293V31.5791H151.27V15.0327H148.727V10.0204H151.27V3.07569H156.234V10.0204ZM141.523 15.0327H139.949V10.0204H146.548V26.6272H148.607V31.6394H139.464V26.6272H141.523V15.0327ZM141.523 8.02756V3.07569H146.548V8.02756H141.523ZM2.39751 15.0327H0.339081V10.0204H7.42249V12.3152C8.75442 11.1073 11.5999 9.77879 15.1113 9.77879V14.9119C9.05711 15.0327 7.42249 17.9917 7.42249 20.7696V26.6272H9.42034V31.6394H0.339081V26.6272H2.39751V15.0327ZM62.2129 15.0327V10.0204H55.4928V11.5301C53.7371 10.3827 51.7392 9.77879 49.5597 9.77879C46.472 9.77879 43.8687 10.8658 41.7498 13.0398C39.6308 15.2138 38.4805 17.8105 38.4805 20.8903C38.4805 23.9701 39.5702 26.5662 41.7498 28.6798C43.9293 30.8545 46.5325 31.9414 49.5597 31.9414C51.7997 31.9414 53.7371 31.3979 55.4928 30.1902V31.5791H62.2129V26.5668H60.6389V15.0327H62.2129ZM49.9229 27.2311C46.351 27.2311 43.5055 24.3324 43.5055 20.8293C43.5055 17.267 46.4115 14.4287 49.9229 14.4287C53.4949 14.4287 56.2192 17.3274 56.2192 20.8299C56.2192 24.3324 53.4343 27.2311 49.9229 27.2311ZM85.098 26.6272V0.660156H77.8933V5.6724H79.9519V11.7113C78.1355 10.5035 76.1375 9.83918 73.7765 9.83918C70.6888 9.83918 68.0855 10.9262 65.9665 13.1002C63.8476 15.2742 62.6972 17.8709 62.6972 20.8903C62.6972 23.9097 63.787 26.5662 65.9665 28.6798C68.1461 30.8545 70.7493 31.9408 73.7765 31.9408C76.0771 31.9408 78.1355 31.3369 79.9519 30.0688V31.6389H87.1563V26.6266L85.098 26.6272ZM74.1397 27.2311C70.5677 27.2311 67.7223 24.3324 67.7223 20.8293C67.7223 17.267 70.6282 14.4282 74.1397 14.4282C77.6511 14.4282 80.4361 17.3268 80.4361 20.8293C80.4361 24.3324 77.6511 27.2311 74.1397 27.2311ZM138.496 15.0327V10.0204C134.985 10.0204 132.2 11.1073 130.807 12.3152V10.0204H114.219V15.0327H116.277L110.283 25.4195V10.0808H103.866L94.7848 25.4799V15.0327H96.8431V10.0204H87.7618V15.0327H89.8201V31.5791H96.9644L105.319 17.5086V31.5791H112.342L122.089 15.0327H125.782V26.6272H123.724V31.6394H132.805V26.6272H130.746V20.7696C130.807 17.9917 132.381 15.1534 138.496 15.0327ZM36.7853 22.4C36.8458 21.9169 36.9064 21.4332 36.9064 20.8903C36.9064 14.7911 32.0631 9.83918 26.0694 9.83918C20.0757 9.83918 15.2324 14.7911 15.2324 20.8903C15.2324 26.9895 20.0757 31.9414 26.0694 31.9414C30.7311 31.9414 34.7269 28.922 36.2404 24.7552H31.0339C29.8835 26.3856 28.0673 27.4123 26.0089 27.4123C23.0423 27.4123 20.6206 25.2987 19.9547 22.4H36.7853ZM26.0089 14.3684C28.6122 14.3684 30.8522 16.0592 31.7603 18.4144H20.2574C21.1655 16.0592 23.4055 14.3684 26.0089 14.3684ZM180.935 22.4C180.997 21.9169 181.057 21.4332 181.057 20.8903C181.057 14.7911 176.213 9.83918 170.22 9.83918C164.227 9.83918 159.383 14.7911 159.383 20.8903C159.383 26.9895 164.227 31.9414 170.22 31.9414C174.882 31.9414 178.878 28.922 180.392 24.7552H175.184C174.035 26.3856 172.218 27.4123 170.159 27.4123C167.192 27.4123 164.771 25.2987 164.105 22.4H180.935ZM170.159 14.3684C172.763 14.3684 175.002 16.0592 175.911 18.4144H164.408C165.316 16.0592 167.556 14.3684 170.159 14.3684Z" fill="#DE122A"/>
</svg>
