<svg width="151" height="33" viewBox="0 0 151 33" fill="none" xmlns="http://www.w3.org/2000/svg">
<mask id="mask0_0_254" style="mask-type:luminance" maskUnits="userSpaceOnUse" x="2" y="4" width="23" height="24">
<path d="M2.11981 4.75H24.9479V27.75H2.11981V4.75Z" fill="white"/>
</mask>
<g mask="url(#mask0_0_254)">
<path d="M24.7018 17.4961C24.069 23.0117 19.3347 27.3633 13.6237 27.3633C7.47138 27.3633 2.56512 22.4023 2.56512 16.25C2.56512 10.0977 7.47137 5.11328 13.5847 5.11328C17.5886 5.11328 21.1354 7.18359 23.0729 10.3281L19.6042 12.8398C18.0495 10.5391 15.8464 9.40625 13.6237 9.40625C10.0222 9.40625 7.16669 12.4727 7.16669 16.2695C7.16669 20.043 10.0222 23.0703 13.6237 23.0703C16.862 23.0703 19.5651 20.7344 20.1784 17.4961H24.7018Z" fill="black"/>
</g>
<path d="M41.5847 19.7188C41.5847 23.875 38.0964 27.3047 33.9167 27.3047C29.7409 27.3047 26.3659 23.875 26.3659 19.7188C26.3659 15.5 29.7409 12.1094 33.9167 12.1094C38.0964 12.1094 41.5847 15.5195 41.5847 19.7188ZM37.405 19.7188C37.405 17.668 35.9089 16.1914 33.9167 16.1914C32.0378 16.1914 30.5065 17.668 30.5065 19.7188C30.5065 21.7891 32.0378 23.2422 33.9167 23.2422C35.8932 23.2422 37.405 21.8047 37.405 19.7188Z" fill="black"/>
<path d="M43.5182 7.53125C43.5182 6.37891 44.612 5.28906 45.8737 5.28906C47.2565 5.28906 48.3268 6.35938 48.3268 7.53125C48.3268 8.79297 47.2565 9.86719 45.8737 9.86719C44.612 9.86719 43.5182 8.79297 43.5182 7.53125ZM47.9636 27H43.862V12.4336H47.9636V27Z" fill="black"/>
<path d="M65.5378 27H61.4753V19.7383C61.4753 17.3984 60.1159 16.2109 58.4479 16.2109C56.6276 16.2109 54.9597 17.3984 54.9597 19.7383V27H50.8386V12.4336H54.9401V13.4492C55.7448 12.5312 57.4518 12.1289 58.7722 12.1289C62.7604 12.1289 65.5182 15.5391 65.5182 19.7383V27H65.5378Z" fill="black"/>
<path d="M68.8151 27V5.5H76.2878C81.3268 5.5 85.1979 9.27344 85.1979 13.9492C85.1979 19.4688 81.5378 23.2617 75.8464 23.2617H73.28V26.9805H68.8151V27ZM75.7331 19.2383C78.9128 19.2383 80.694 17.3047 80.694 14.3125C80.694 11.6875 79.1042 9.5625 75.9987 9.5625H73.28V19.2578H75.7331V19.2383Z" fill="black"/>
<path d="M100.874 24.2773C99.6276 26.1172 97.0612 27.3047 94.4753 27.3047C90.0847 27.3047 86.5768 23.875 86.5768 19.7188C86.5768 15.5 89.9518 12.1094 94.1276 12.1094C97.7331 12.1094 100.51 14.5234 101.393 17.2461L93.2487 23.0703C93.6315 23.2227 94.0339 23.2422 94.4557 23.2422C95.7018 23.2422 96.9284 22.8047 97.5964 21.7695L100.874 24.2773ZM90.8347 20.6758L96.1393 16.9023C95.5651 16.4609 94.8972 16.2109 94.1276 16.2109C92.2526 16.2109 90.7175 17.6875 90.7175 19.7383C90.7175 20.0625 90.737 20.3867 90.8347 20.6758Z" fill="black"/>
<path d="M117.624 5.5V27H113.522V25.9648C112.889 26.8086 111.299 27.3242 109.975 27.3242C105.991 27.3242 102.831 23.8945 102.831 19.7383C102.831 15.5195 106.089 12.1289 109.975 12.1289C111.28 12.1289 112.889 12.7617 113.522 13.4492V5.51562H117.624V5.5ZM113.714 19.7188C113.714 17.668 112.296 16.1914 110.397 16.1914C108.522 16.1914 106.987 17.668 106.987 19.7188C106.987 21.7891 108.522 23.2422 110.397 23.2422C112.296 23.2422 113.714 21.8047 113.714 19.7188Z" fill="black"/>
<path d="M120.171 7.53125C120.171 6.37891 121.264 5.28906 122.53 5.28906C123.909 5.28906 124.983 6.35938 124.983 7.53125C124.983 8.79297 123.909 9.86719 122.53 9.86719C121.264 9.86719 120.171 8.79297 120.171 7.53125ZM124.62 27H120.518V12.4336H124.62V27Z" fill="black"/>
<path d="M141.694 12.4336V27H137.592V25.9648C136.96 26.8086 135.37 27.3242 134.046 27.3242C130.061 27.3242 126.897 23.8945 126.897 19.7383C126.897 15.5195 130.155 12.1289 134.046 12.1289C135.35 12.1289 136.96 12.7617 137.592 13.4492V12.4336H141.694ZM137.764 19.7188C137.764 17.668 136.346 16.1914 134.448 16.1914C132.569 16.1914 131.038 17.668 131.038 19.7188C131.038 21.7891 132.569 23.2422 134.448 23.2422C136.346 23.2422 137.764 21.8047 137.764 19.7188Z" fill="black"/>
<path d="M143.706 22.8984H147.807V27H143.706V22.8984Z" fill="#ED3A4D"/>
</svg>
